<svg xmlns="http://www.w3.org/2000/svg" aria-hidden="true" style="position:absolute;width:0;height:0;overflow:hidden"><defs><symbol id="icon-download" viewBox="0 0 32 32"><path d="m18 8-4-4H0v26h32V8H18zm-2 19-7-7h5v-8h4v8h5l-7 7z"/></symbol><symbol id="icon-comment" viewBox="0 0 32 32"><path d="M16 2c8.84 0 16 5.82 16 13s-7.16 13-16 13c-.85 0-1.68-.05-2.5-.16C10.07 31.28 5.97 31.9 2 32v-.85C4.14 30.1 6 28.18 6 26c0-.3-.02-.6-.07-.9C2.31 22.72 0 19.08 0 15 0 7.82 7.16 2 16 2z"/></symbol><symbol id="icon-eye" viewBox="0 0 32 32"><path d="M16 6A17.92 17.92 0 0 0 0 16c2.97 5.94 9.02 10 16 10s13.03-4.06 16-10A17.92 17.92 0 0 0 16 6zm7.89 5.3c1.88 1.2 3.47 2.8 4.67 4.7-1.2 1.9-2.8 3.5-4.67 4.7a14.64 14.64 0 0 1-15.78 0A15.21 15.21 0 0 1 3.44 16a15.22 15.22 0 0 1 5.04-4.92A7.98 7.98 0 0 0 16 21.8a8 8 0 0 0 7.52-10.73l.37.22zM16 13a3 3 0 1 1-6 0 3 3 0 0 1 6 0z"/></symbol><symbol id="icon-likes" viewBox="0 0 32 32"><path d="M23.6 2c-3.36 0-6.26 2.74-7.6 5.6C14.66 4.73 11.76 2 8.4 2A8.4 8.4 0 0 0 0 10.4c0 9.43 9.52 11.9 16 21.23 6.13-9.27 16-12.1 16-21.23A8.4 8.4 0 0 0 23.6 2z"/></symbol></defs></svg>